<?xml version="1.0" encoding="utf-8"?>
<svg version="1.1" id="Layer_1" xmlns="http://www.w3.org/2000/svg" xmlns:xlink="http://www.w3.org/1999/xlink" x="0px" y="0px"
	 viewBox="0 0 286.5 420" style="enable-background:new 0 0 286.5 420;" xml:space="preserve">
<g>
	<path d="M286.5,232.3c0-19.3-5.5-35-12.2-35c-0.3,0-0.6,0-0.9,0.1c0.1-3,0.8-8.3,1.6-14.9c3.1-25.6,8.3-68.5-0.9-90.1
		c-12-28.2-38.2-54.4-52.8-65.2C210.1,19.1,188,11.9,176,8.4c0.8-0.2,1.4-0.4,1.9-0.4l-0.8-8C81.1,6.1,56.2,37.9,50.8,47.5h-9v10
		c-4.5,5.2-22.2,26.8-27.9,49c-7.1,27.8-2.3,87.8-2.1,90.3l0,0.1c0,0.1,0,0.2,0,0.3C5.3,197.8,0,213.2,0,232.3
		c0,15.8,3.7,29.2,8.7,33.5c2.6,24,9.5,55.1,16.4,76c3.7,11.2,13.4,32.8,35.9,50.9c22.7,18.2,51.6,27.4,85.9,27.4
		c77.8,0,103.6-56.3,114.6-80.3c11.2-24.4,13.8-43.7,14.8-72.9C282.1,264,286.5,249.6,286.5,232.3z M140.8,307
		c-8.8,0-17.6-1.8-25.6-3.7c-4.2-1-4.2-7,0-7.9c7.6-1.7,15.9-2.7,24.9-2.7c8.4,0,16.8,0.9,25.1,2.8c4.3,1,4.3,7.2,0,8.1
		C157.5,305.3,149.4,307,140.8,307z M253.6,256.3c-6,14.6-16.9,34-24.8,48.2c-4.4,7.8-7.8,13.9-9.5,17.5c-0.7,1.4-1.2,2.3-1.5,2.8
		c-1.5-1.5-4.3-6.1-9.5-18c-10.1-22.9-40.6-47.1-49.3-47.1c-3.7,0-6.9,1.4-9.8,2.6c-2.6,1.1-5,2.1-7.6,2.1c-2.7,0-5.8-1.2-8.8-2.4
		c-3.3-1.3-6.7-2.6-10.2-2.6l-0.5,0c-14.2,1.6-35.7,26.8-41.9,36.5l-0.2,0.3c-3.1,5.8-5.4,15.2-7.2,22.8c-0.5,2-1,4.2-1.5,6
		c-2.6-2.7-6.4-8.6-9-12.8c-3.4-5.4-7.3-11.5-11.7-16.8c-10.6-13.1-20.2-25.9-22.2-39.7c-1.6-11.1-1.2-27-0.9-38.7
		c0.1-4.1,0.2-7.6,0.2-10.5c0-9.6,1.1-21.4,1.2-21.6c0.1-1.2,2.7-30.5,2-52.5c-0.7-21.9,16-70.6,50.3-85.5
		c20.2-8.8,35-12.8,47.8-12.8c7.7,0,14.3,1.4,20.3,3c11.6,3,22.9,3.3,32.9,3.7c6.1,0.2,11.8,0.4,16.9,1.1
		c11.1,1.6,56,39.9,57.9,69.6c0.9,14.4,0.2,28.5-0.5,41c-0.8,14.4-1.4,26.9,0.4,37.4C261.7,217.5,260.6,239.3,253.6,256.3z"/>
	<circle cx="84.7" cy="177" r="14.3"/>
	<circle cx="204" cy="177" r="14.3"/>
	<path d="M46.6,161.6c-1,0-2.1-0.4-2.9-1.1c-1.8-1.6-1.9-4.3-0.2-6.1c12-13,29-18.5,49.2-15.9c14.9,1.9,26.3,7.4,26.8,7.6
		c2.1,1.1,3,3.6,2,5.8c-1.1,2.1-3.6,3-5.8,2l0,0c-0.4-0.2-41.6-19.9-65.8,6.4C48.9,161.2,47.7,161.6,46.6,161.6z"/>
	<path d="M241.4,161.6c-1.2,0-2.3-0.5-3.2-1.4c-24.4-26.4-65.4-6.6-65.8-6.4c-2.1,1.1-4.7,0.2-5.8-2c-1.1-2.1-0.2-4.7,2-5.8
		c0.5-0.2,11.8-5.8,26.8-7.6c20.2-2.5,37.3,3,49.2,15.9c1.6,1.8,1.5,4.5-0.2,6.1C243.5,161.3,242.5,161.6,241.4,161.6z"/>
	<path d="M142.8,256.5c-0.5,0-1.1,0-1.6,0c-15.7-1-25.6-16.3-26-17c-1.2-1.9-0.6-4.3,1.3-5.5c1.9-1.2,4.3-0.6,5.5,1.2l0,0
		c0.1,0.1,8.1,12.6,19.8,13.3c7.6,0.5,15.4-4.1,23.1-13.7c1.4-1.7,3.9-2,5.6-0.6c1.7,1.4,2,3.9,0.6,5.6
		C162,250.9,152.5,256.5,142.8,256.5z"/>
</g>
</svg>
